<?xml version="1.0" standalone="no"?>
<!DOCTYPE svg PUBLIC "-//W3C//DTD SVG 20010904//EN"
 "http://www.w3.org/TR/2001/REC-SVG-20010904/DTD/svg10.dtd">
<svg version="1.0" xmlns="http://www.w3.org/2000/svg"
 width="512.000000pt" height="512.000000pt" viewBox="0 0 512.000000 512.000000"
 preserveAspectRatio="xMidYMid meet">

<g transform="translate(0.000000,512.000000) scale(0.100000,-0.100000)"
fill="#000000" stroke="none">
<path d="M0 2560 l0 -2560 2560 0 2560 0 0 2560 0 2560 -2560 0 -2560 0 0
-2560z m1275 1985 c301 -63 491 -367 417 -663 -50 -195 -180 -331 -382 -397
-77 -26 -223 -24 -311 4 -159 51 -304 192 -355 347 -27 83 -27 265 0 348 37
111 136 235 234 293 126 75 258 97 397 68z m2595 -1290 c268 -59 474 -227 585
-479 38 -86 82 -246 100 -366 23 -156 36 -648 33 -1237 -3 -509 -3 -522 -24
-550 -45 -61 -57 -63 -412 -63 -355 0 -371 2 -412 60 -19 27 -20 46 -20 699 0
413 -4 709 -11 768 -26 234 -108 371 -260 435 -45 19 -73 22 -169 22 -108 1
-119 -1 -183 -31 -124 -58 -207 -174 -259 -359 -22 -77 -23 -95 -28 -794 -5
-668 -6 -717 -23 -742 -38 -55 -56 -58 -404 -58 -300 0 -320 1 -351 20 -18 11
-41 34 -52 52 -20 32 -20 53 -20 1266 0 1367 -4 1279 65 1322 31 19 49 20 361
20 309 0 331 -1 361 -20 52 -31 63 -64 63 -192 l1 -113 21 30 c35 49 150 160
198 190 108 69 211 107 355 131 106 17 383 11 485 -11z m-2353 -35 c18 -10 40
-31 50 -47 17 -26 18 -89 18 -1273 l0 -1245 -22 -31 c-44 -62 -58 -64 -400
-64 -344 0 -356 2 -400 69 l-23 34 0 1236 c0 1178 1 1238 18 1270 37 69 49 71
407 71 300 0 322 -1 352 -20z"/>
</g>
</svg>
